<?xml version="1.0" encoding="UTF-8"?>
<svg width="24px" height="24px" viewBox="0 0 24 24" version="1.1" xmlns="http://www.w3.org/2000/svg" xmlns:xlink="http://www.w3.org/1999/xlink">
    <!-- Generator: Sketch 52.5 (67469) - http://www.bohemiancoding.com/sketch -->
    <title>Behance</title>
    <desc>Created with Sketch.</desc>
    <g id="Template" stroke="none" stroke-width="1" fill="none" fill-rule="evenodd">
        <g id="Homepage" transform="translate(-67.000000, -736.000000)">
            <g id="Sidebar-static">
                <g id="Icons/Social/Icon" transform="translate(67.000000, 736.000000)">
                    <circle id="Container" fill="#546E7A" fill-rule="evenodd" cx="11.9146195" cy="11.9146195" r="11.9146195"></circle>
                    <g id="Icons/Social/Behance" fill="#F1F2F2" fill-rule="nonzero">
                        <path d="M15.9543245,10.2428665 C12.6241885,10.2428665 12.6198725,13.6094605 12.6198725,13.6267711 C12.6198725,13.6267711 12.3917387,16.9975363 15.9543245,16.9975363 C15.9543245,16.9975363 18.9254068,17.1689736 18.9254068,14.6516406 L17.3997881,14.6516406 C17.3997881,14.6516406 17.4503475,15.5993424 16.0050894,15.5993424 C16.0050894,15.5993424 14.4794707,15.7023716 14.4794707,14.0682951 L18.9761717,14.0682951 C18.9761717,14.0682951 19.470667,10.2428665 15.9543245,10.2428665 Z M14.4624121,12.8888818 C14.4624121,12.8888818 14.648413,11.5336515 15.9882363,11.5336515 C17.3321701,11.5336515 17.3110207,12.8888818 17.3110207,12.8888818 L14.4624121,12.8888818 Z M10.6507289,12.0227274 C10.6507289,12.0227274 11.9734935,11.9240779 11.9734935,10.3458958 C11.9734935,8.77209336 10.8916052,8 9.51807569,8 L5,8 L5,16.8129597 L9.51766464,16.8129597 C9.51766464,16.8129597 12.2774663,16.8988869 12.2774663,14.2099081 C12.2776718,14.2099081 12.3960548,12.0227274 10.6507289,12.0227274 Z M6.99072379,9.56525139 L9.51787016,9.56525139 C9.51787016,9.56525139 10.1307484,9.56525139 10.1307484,10.4829204 C10.1307484,11.4005895 9.77148911,11.5336515 9.36146496,11.5336515 L6.99072379,11.5336515 L6.99072379,9.56525139 Z M9.39126621,15.2477083 L6.99072379,15.2477083 L6.99072379,12.8888802 L9.51787016,12.8888818 C9.51787016,12.8888818 10.4351322,12.8803308 10.4308162,14.1024991 C10.4308162,15.1319569 9.75052547,15.2391573 9.39126621,15.2477083 Z M14.0862997,8.51890013 L14.0862997,9.60404376 L17.6702602,9.60404376 L17.6702602,8.51890013 L14.0862997,8.51890013 Z" id="ic-behance"></path>
                    </g>
                </g>
            </g>
        </g>
    </g>
</svg>