<?xml version="1.0" encoding="UTF-8"?>
<svg width="24px" height="24px" viewBox="0 0 24 24" version="1.1" xmlns="http://www.w3.org/2000/svg" xmlns:xlink="http://www.w3.org/1999/xlink">
    <!-- Generator: Sketch 52.5 (67469) - http://www.bohemiancoding.com/sketch -->
    <title>Email</title>
    <desc>Created with Sketch.</desc>
    <defs>
        <path d="M12.5743937,4.02054333 C7.70133956,3.6764689 3.6764689,7.70133956 4.02054333,12.5743937 C4.30860564,16.8073094 8.00540533,20 12.2463227,20 L15.1989614,20 C15.6390566,20 15.9991345,19.6399221 15.9991345,19.1998269 C15.9991345,18.7597317 15.6390566,18.3996538 15.1989614,18.3996538 L12.2623262,18.3996538 C9.27768055,18.3996538 6.54108857,16.4632349 5.7969276,13.5746101 C4.60466969,8.93360612 8.92560439,4.60466969 13.5666083,5.80492933 C16.4632349,6.54108857 18.3996538,9.27768055 18.3996538,12.2623262 L18.3996538,13.1425166 C18.3996538,13.7746533 17.8315309,14.3987883 17.1993942,14.3987883 C16.5672574,14.3987883 15.9991345,13.7746533 15.9991345,13.1425166 L15.9991345,12.1423002 C15.9991345,10.1338658 14.5748264,8.32547457 12.5903972,8.04541399 C9.86980864,7.65332917 7.57331186,10.0058381 8.06141745,12.74243 C8.3334763,14.2707607 9.52573421,15.5350341 11.0380614,15.895112 C12.5103798,16.2391865 13.9106828,15.7670843 14.8308818,14.8308818 C15.5430359,15.807093 16.967344,16.3192038 18.2716261,15.7990913 C19.3438581,15.3749995 20,14.2787624 20,13.1265131 L20,12.2543245 C20,8.00540533 16.8073094,4.30860564 12.5743937,4.02054333 Z M11.9982691,14.3987883 C10.6699817,14.3987883 9.59774979,13.3265564 9.59774979,11.9982691 C9.59774979,10.6699817 10.6699817,9.59774979 11.9982691,9.59774979 C13.3265564,9.59774979 14.3987883,10.6699817 14.3987883,11.9982691 C14.3987883,13.3265564 13.3265564,14.3987883 11.9982691,14.3987883 Z" id="path-1"></path>
    </defs>
    <g id="Template" stroke="none" stroke-width="1" fill="none" fill-rule="evenodd">
        <g id="Homepage/Resume" transform="translate(-227.000000, -736.000000)">
            <g id="Sidebar-static">
                <g id="Icons/Social/Icon" transform="translate(227.000000, 736.000000)">
                    <circle id="Container" fill="#546E7A" fill-rule="evenodd" cx="11.9146195" cy="11.9146195" r="11.9146195"></circle>
                    <g id="Icons/Social/Mail">
                        <mask id="mask-2" fill="white">
                            <use xlink:href="#path-1"></use>
                        </mask>
                        <use id="ic-email" fill="#F1F2F2" fill-rule="nonzero" xlink:href="#path-1"></use>
                    </g>
                </g>
            </g>
        </g>
    </g>
</svg>