<?xml version="1.0" encoding="UTF-8"?>
<svg width="24px" height="24px" viewBox="0 0 24 24" version="1.1" xmlns="http://www.w3.org/2000/svg" xmlns:xlink="http://www.w3.org/1999/xlink">
    <!-- Generator: Sketch 52.5 (67469) - http://www.bohemiancoding.com/sketch -->
    <title>Dribbble</title>
    <desc>Created with Sketch.</desc>
    <g id="Template" stroke="none" stroke-width="1" fill="none" fill-rule="evenodd">
        <g id="Homepage" transform="translate(-107.000000, -736.000000)">
            <g id="Sidebar-static">
                <g id="Icons/Social/Icon" transform="translate(107.000000, 736.000000)">
                    <circle id="Container" fill="#546E7A" fill-rule="evenodd" cx="11.9146195" cy="11.9146195" r="11.9146195"></circle>
                    <g id="Icons/Social/Dribbble" fill="#F1F2F2" fill-rule="nonzero">
                        <path d="M11.9997757,4 C7.58869702,4 4,7.5890138 4,12.0001123 C4,16.4112108 7.58869702,20 11.9997757,20 C16.4110787,20 20,16.4114353 20,12.0001123 C20,7.5890138 16.4110787,4 11.9997757,4 Z M17.2639605,7.77584102 C18.176497,8.90825649 18.7311056,10.3384279 18.7566719,11.8968184 C18.4530164,11.8343929 17.1670778,11.5943469 15.6304104,11.5943469 C15.1345593,11.5943469 14.6126934,11.6192722 14.0894819,11.6839431 C14.0453016,11.5763827 14.0011213,11.4692715 13.9546984,11.3610374 C13.8190177,11.0415 13.6727966,10.7244327 13.5214174,10.4120809 C15.8865216,9.43640268 17.0273604,8.08235443 17.2639605,7.77584102 Z M11.9997757,5.25232622 C13.704418,5.25232622 15.2626149,5.88646092 16.4527921,6.93085203 C16.2644091,7.18818857 15.2426553,8.46701192 12.9620991,9.3297405 C11.9064813,7.39769554 10.7510653,5.7977629 10.4761157,5.42635398 C10.9661359,5.31273069 11.4761157,5.25232622 11.9997757,5.25232622 Z M9.09665844,5.90801791 C9.32967033,6.22935175 10.4868805,7.84635033 11.5696344,9.76290121 C8.66382597,10.5277251 6.08342678,10.5775757 5.4606414,10.5775757 L5.39448307,10.5775757 C5.8418928,8.51304506 7.23503028,6.79746818 9.09665844,5.90801791 Z M5.24108545,12.0106662 C5.24108545,11.9549773 5.24198251,11.8992885 5.24377663,11.8438241 C5.28414443,11.8442732 5.34379906,11.8442732 5.42117067,11.8442732 C6.25992375,11.8442732 9.17133887,11.7748867 12.1715631,10.8834154 C12.3536667,11.2400039 12.527024,11.6019817 12.6882709,11.9637349 C12.6124692,11.9855164 12.5377887,12.0072979 12.4635569,12.0315495 C9.08544517,13.1239948 7.22875084,16.0159993 6.94303656,16.4886812 C5.88450325,15.2945139 5.24108545,13.7266922 5.24108545,12.0106662 Z M11.9997757,18.7685571 C10.4496524,18.7685571 9.01906257,18.242881 7.87755102,17.3615146 C8.07064364,16.9824709 9.47207894,14.4560369 13.1740301,13.165986 C13.1762727,13.1650878 13.1787396,13.1641896 13.1814308,13.1635159 C14.1096658,15.5832877 14.5028033,17.6141355 14.610675,18.2435547 C13.8073559,18.5817299 12.9250953,18.7685571 11.9997757,18.7685571 Z M15.8279883,17.577309 C15.7373851,17.0565731 15.3731778,15.1532707 14.5326306,12.8318527 C15.0040368,12.7584242 15.4626598,12.729457 15.8928011,12.729457 C17.3054497,12.729457 18.4104059,13.0391141 18.66719,13.1177073 C18.3619646,14.9610543 17.3079166,16.5562713 15.8279883,17.577309 Z" id="ic-dribbble"></path>
                    </g>
                </g>
            </g>
        </g>
    </g>
</svg>