<?xml version="1.0" encoding="UTF-8"?>
<svg width="24px" height="24px" viewBox="0 0 24 24" version="1.1" xmlns="http://www.w3.org/2000/svg" xmlns:xlink="http://www.w3.org/1999/xlink">
    <!-- Generator: Sketch 52.5 (67469) - http://www.bohemiancoding.com/sketch -->
    <title>Instagram</title>
    <desc>Created with Sketch.</desc>
    <g id="Template" stroke="none" stroke-width="1" fill="none" fill-rule="evenodd">
        <g id="Homepage" transform="translate(-187.000000, -736.000000)">
            <g id="Sidebar-static">
                <g id="Icons/Social/Icon" transform="translate(187.000000, 736.000000)">
                    <circle id="Container" fill="#546E7A" fill-rule="evenodd" cx="11.9146195" cy="11.9146195" r="11.9146195"></circle>
                    <g id="Icons/Social/Instagram" fill="#F1F2F2" fill-rule="nonzero">
                        <path d="M19.3978667,15.7658667 C19.3978667,17.7688 17.7688,19.3978667 15.7658667,19.3978667 L8.632,19.3978667 C6.62933333,19.3978667 5,17.7688 5,15.7658667 L5,8.632 C5,6.62933333 6.62933333,5 8.632,5 L15.7658667,5 C17.7688,5 19.3978667,6.62933333 19.3978667,8.632 L19.3978667,15.7658667 Z M15.7658667,6.56693333 L8.632,6.56693333 C7.49333333,6.56693333 6.56693333,7.49333333 6.56693333,8.632 L6.56693333,15.7658667 C6.56693333,16.9045333 7.49333333,17.8312 8.632,17.8312 L15.7658667,17.8312 C16.9045333,17.8312 17.8312,16.9048 17.8312,15.7658667 L17.8312,8.632 C17.8312,7.49333333 16.9048,6.56693333 15.7658667,6.56693333 Z M16.0264,9.2576 C15.5424,9.2576 15.1488,8.864 15.1488,8.38026667 C15.1488,7.89653333 15.5424,7.50293333 16.0264,7.50293333 C16.5101333,7.50293333 16.9037333,7.89653333 16.9037333,8.38026667 C16.9037333,8.864 16.5101333,9.2576 16.0264,9.2576 Z M12.1989333,15.9072 C10.1544,15.9072 8.49093333,14.2437333 8.49093333,12.1989333 C8.49093333,10.1544 10.1544,8.49093333 12.1989333,8.49093333 C14.2437333,8.49093333 15.9072,10.1544 15.9072,12.1989333 C15.9072,14.2434667 14.2434667,15.9072 12.1989333,15.9072 Z M12.1989333,10.0578667 C11.0186667,10.0578667 10.0576,11.0184 10.0576,12.1986667 C10.0576,13.3794667 11.0186667,14.3402667 12.1989333,14.3402667 C13.3797333,14.3402667 14.34,13.3794667 14.34,12.1986667 C14.34,11.0186667 13.3794667,10.0578667 12.1989333,10.0578667 Z" id="ic-instagram"></path>
                    </g>
                </g>
            </g>
        </g>
    </g>
</svg>