<?xml version="1.0" encoding="UTF-8"?>
<svg width="24px" height="24px" viewBox="0 0 24 24" version="1.1" xmlns="http://www.w3.org/2000/svg" xmlns:xlink="http://www.w3.org/1999/xlink">
    <!-- Generator: Sketch 52.5 (67469) - http://www.bohemiancoding.com/sketch -->
    <title>Linkedin</title>
    <desc>Created with Sketch.</desc>
    <g id="Template" stroke="none" stroke-width="1" fill="none" fill-rule="evenodd">
        <g id="Homepage" transform="translate(-147.000000, -736.000000)">
            <g id="Sidebar-static">
                <g id="Icons/Social/Icon" transform="translate(147.000000, 736.000000)">
                    <circle id="Container" fill="#546E7A" fill-rule="evenodd" cx="11.9146195" cy="11.9146195" r="11.9146195"></circle>
                    <g id="Icons/Social/Linkedin" fill="#F1F2F2" fill-rule="nonzero">
                        <path d="M19,12.9696503 L19,18 L15.998689,18 L15.998689,13.306776 C15.998689,12.1283587 15.5653578,11.3236072 14.4786724,11.3236072 C13.6493893,11.3236072 13.1567436,11.8654007 12.9391827,12.3900117 C12.8601714,12.5774971 12.839803,12.8378451 12.839803,13.1008031 L12.839803,17.9997825 L9.83826821,17.9997825 C9.83826821,17.9997825 9.87855727,10.0510122 9.83826821,9.22820813 L12.8400269,9.22820813 L12.8400269,10.471223 C12.8339835,10.4810105 12.825478,10.4905806 12.8201062,10.4999331 L12.8400269,10.4999331 L12.8400269,10.471223 C13.2388885,9.87483687 13.9502142,9.02223524 15.5449894,9.02223524 C17.5196009,9.02223524 19,10.2759076 19,12.9696503 Z M6.69840762,5 C5.67170813,5 5,5.65489376 5,6.51532541 C5,7.35748703 5.65223508,8.03130333 6.65901388,8.03130333 L6.67848692,8.03130333 C7.72533095,8.03130333 8.37622306,7.35748703 8.37622306,6.51532541 C8.35630236,5.65489376 7.72533095,5 6.69840762,5 Z M5.178391,18 L8.17880668,18 L8.17880668,9.22820813 L5.178391,9.22820813 L5.178391,18 Z" id="ic-linkedin"></path>
                    </g>
                </g>
            </g>
        </g>
    </g>
</svg>